<?xml version="1.0" encoding="iso-8859-1"?>
<!-- Uploaded to: SVG Repo, www.svgrepo.com, Generator: SVG Repo Mixer Tools -->
<!DOCTYPE svg PUBLIC "-//W3C//DTD SVG 1.1//EN" "http://www.w3.org/Graphics/SVG/1.1/DTD/svg11.dtd">
<svg fill="#000000" version="1.1" id="Capa_1" xmlns="http://www.w3.org/2000/svg" xmlns:xlink="http://www.w3.org/1999/xlink" 
	 width="800px" height="800px" viewBox="0 0 433.323 433.323"
	 xml:space="preserve">
<g>
	<g>
		<g>
			<path d="M257.515,147.788h-7.244l12.774-22.376c0.533-1.084,0.471-2.368-0.169-3.395c-0.64-1.026-1.763-1.65-2.972-1.65h-23.835
				c-1.334,0-2.553,0.758-3.142,1.955l-22.608,42.362c-0.533,1.084-0.47,2.368,0.169,3.395c0.64,1.026,1.763,1.65,2.972,1.65h10.838
				l-12.969,32.684c-0.637,1.604-0.01,3.432,1.478,4.307c0.555,0.327,1.167,0.484,1.773,0.484c1.021,0,2.024-0.445,2.71-1.282
				l42.932-52.416c0.855-1.046,1.033-2.493,0.455-3.716C260.099,148.567,258.867,147.788,257.515,147.788z"/>
			<path d="M353.977,64.246C334.905,40.385,285.367,0,220.669,0C177.41,0,136.247,18.086,98.325,53.752
				c-0.064,0.063-0.129,0.125-0.191,0.189c-36.98,38.043-32.148,73.184-26.027,117.699c0.377,2.738,0.758,5.514,1.137,8.332
				c1.014,7.566-5.607,19.236-12.012,30.521c-9.622,16.959-19.572,34.494-7.416,42.775c20.771,14.158,24.38,42.021,27.871,68.979
				c0.83,6.402,1.688,13.021,2.762,19.459c1.85,11.104,11.219,16.502,28.641,16.502c7.747,0,16.021-0.957,24.027-1.883
				c6.861-0.793,13.343-1.541,18.529-1.541c2.9,0,5.166,0.229,6.926,0.707c20.933,5.674,39.221,47.998,45.83,73.346
				c0.537,2.059,2.121,3.678,4.166,4.256c0.541,0.154,1.092,0.229,1.64,0.229c1.522,0,3.014-0.578,4.145-1.658l107.291-102.395
				c1.658-1.586,2.271-3.979,1.569-6.168c-9.473-29.641,10.214-58.565,27.588-84.102c7.58-11.141,14.74-21.66,19.64-32.025
				C397.029,159.166,380.757,97.756,353.977,64.246z M300.584,169.7H258.28l-41.619,48.962c-1.76,2.146-4.357,3.377-7.133,3.377
				c-1.646,0-3.266-0.443-4.684-1.279c-3.935-2.312-5.571-7.084-3.884-11.34l10.458-30.939h-2.823c-3.207,0-6.134-1.626-7.826-4.35
				c-0.852-1.366-1.316-2.889-1.389-4.432h-31.479c-20.771,0-37.612-16.839-37.612-37.611c0-18.086,12.767-33.188,29.78-36.792
				c-0.006-0.271-0.012-0.544-0.012-0.818c0-28.058,22.746-50.803,50.803-50.803c18.675,0,34.99,10.077,43.82,25.088
				c1.271-0.131,2.562-0.198,3.87-0.198c16.87,0,31.146,11.108,35.914,26.41c1.99-0.325,4.033-0.497,6.116-0.497
				c20.773,0,37.611,16.838,37.611,37.611C338.193,152.862,321.357,169.7,300.584,169.7z"/>
		</g>
	</g>
</g>
</svg>