<?xml version="1.0" encoding="UTF-8"?>
<svg version="1.1" xmlns="http://www.w3.org/2000/svg" width="393" height="384">
<path d="M0 0 C129.69 0 259.38 0 393 0 C393 126.72 393 253.44 393 384 C263.31 384 133.62 384 0 384 C0 257.28 0 130.56 0 0 Z " fill="#FEFEFE" transform="translate(0,0)"/>
<path d="M0 0 C0.66296082 0.00281982 1.32592163 0.00563965 2.00897217 0.00854492 C33.95990565 0.21243999 62.36203581 11.58832959 85.3515625 34.10546875 C100.21445014 50.02357651 112.57019792 70.49203374 115.5 92.3125 C116.06203125 92.44785156 116.6240625 92.58320312 117.203125 92.72265625 C122.07629477 93.97084544 126.82291899 95.40124318 131.54296875 97.140625 C132.43016602 97.46538818 133.31736328 97.79015137 134.23144531 98.12475586 C136.02338855 98.78711525 137.8106586 99.46226915 139.59277344 100.15063477 C140.84429199 100.61167603 140.84429199 100.61167603 142.12109375 101.08203125 C142.8680249 101.36667236 143.61495605 101.65131348 144.38452148 101.94458008 C147.09594014 102.41614475 148.20749742 101.75443497 150.5 100.3125 C151.64030153 99.50023042 152.76569408 98.66661348 153.875 97.8125 C159.35221438 93.87030111 164.74736262 92.48745972 171.5 93.3125 C180.47519482 95.62378137 186.59234012 100.52738482 191.5 108.3125 C193.71436603 114.9555981 193.51714869 122.8666713 190.75 129.3125 C190.03252828 130.66361513 189.28585705 131.99998086 188.5 133.3125 C187.7265625 134.67375 187.7265625 134.67375 186.9375 136.0625 C181.40345395 141.1708502 174.80156529 143.60922835 167.3125 143.875 C161.88343123 143.62886346 157.9865969 142.32448113 153.5 139.3125 C152.5925 138.735 151.685 138.1575 150.75 137.5625 C146.7380204 133.5505204 143.6282435 127.56988499 143.40234375 121.83203125 C143.41974609 120.49205078 143.41974609 120.49205078 143.4375 119.125 C143.44652344 118.22394531 143.45554687 117.32289062 143.46484375 116.39453125 C143.48224609 115.36392578 143.48224609 115.36392578 143.5 114.3125 C142.53964844 114.21066406 141.57929688 114.10882813 140.58984375 114.00390625 C135.88828909 113.33225558 131.53532024 111.80341299 127.0625 110.25 C126.23556641 109.96833984 125.40863281 109.68667969 124.55664062 109.39648438 C122.53587662 108.70732208 120.51766718 108.0106769 118.5 107.3125 C118.48541748 107.92544922 118.47083496 108.53839844 118.45581055 109.16992188 C117.6521831 139.5430639 111.10340856 166.99712541 90.5 190.3125 C89.70207031 191.26511719 88.90414063 192.21773437 88.08203125 193.19921875 C71.1348264 213.01672073 44.54089375 227.74639016 18.5 230.3125 C13.80087463 230.49390398 9.10366736 230.49832408 4.40161133 230.49780273 C2.20308929 230.49998453 0.005074 230.51817644 -2.19335938 230.53710938 C-13.44949218 230.58393573 -23.69168377 229.2426691 -34.375 225.625 C-35.14239502 225.36734863 -35.90979004 225.10969727 -36.70043945 224.84423828 C-43.7488654 222.38628797 -50.07125078 219.11248942 -56.5 215.3125 C-57.78666502 214.57361008 -59.07444342 213.83665586 -60.36328125 213.1015625 C-61.39839844 212.51117188 -62.43351562 211.92078125 -63.5 211.3125 C-63.85602295 211.82409668 -64.2120459 212.33569336 -64.57885742 212.86279297 C-71.5532259 222.87652721 -78.57614274 232.84915042 -85.74072266 242.7277832 C-90.89602143 249.8419702 -95.96237576 257.01707522 -101.01611328 264.20361328 C-103.50648786 267.74291167 -106.00359792 271.27745184 -108.5 274.8125 C-109.50003195 276.22914412 -110.50003196 277.64581078 -111.5 279.0625 C-117.5 287.5625 -123.5 296.0625 -129.5 304.5625 C-130.24237915 305.61425415 -130.24237915 305.61425415 -130.99975586 306.68725586 C-132.00044188 308.10482654 -133.00125583 309.52230692 -134.00219727 310.93969727 C-136.49275451 314.46680572 -138.98111592 317.99542217 -141.46484375 321.52734375 C-148.72807915 331.84872078 -156.08925152 342.09656313 -163.5 352.3125 C-167.48467756 351.48957746 -170.17947232 349.65196269 -173.5 347.3125 C-173.02288896 342.49637909 -170.68721352 339.45887142 -167.8125 335.75 C-166.80382978 334.41308512 -165.79743312 333.07445274 -164.79296875 331.734375 C-163.98931885 330.66413086 -163.98931885 330.66413086 -163.16943359 329.57226562 C-160.23919199 325.60585493 -157.43753135 321.55029535 -154.625 317.5 C-150.12578022 311.0356744 -145.57197344 304.61801626 -140.9375 298.25 C-136.51900027 292.17339236 -132.22029617 286.02831736 -128 279.8125 C-123.21753373 272.76900914 -118.31162895 265.83065304 -113.30688477 258.94360352 C-108.13270262 251.82237499 -103.05618223 244.63473949 -97.99267578 237.43457031 C-95.96327221 234.54945814 -93.93128152 231.66617973 -91.89746094 228.78417969 C-90.89251009 227.3589415 -89.88921925 225.93253119 -88.88769531 224.50488281 C-86.46558285 221.05920655 -84.01466011 217.64358904 -81.48828125 214.2734375 C-81.01600098 213.63623779 -80.5437207 212.99903809 -80.05712891 212.3425293 C-79.16765628 211.14594287 -78.26809107 209.95676924 -77.35693359 208.77661133 C-75.1020917 205.76062105 -75.1020917 205.76062105 -74.4921875 202.140625 C-75.79502168 199.7773444 -77.31766616 198.54776871 -79.4375 196.875 C-88.62534052 189.00388821 -95.15202901 179.07529162 -100.5 168.3125 C-100.9125 167.52359375 -101.325 166.7346875 -101.75 165.921875 C-104.5 160.61284722 -104.5 160.61284722 -104.5 158.3125 C-109.74683186 162.44298466 -113.80384579 166.94169384 -117.953125 172.1640625 C-119.80331773 174.48200058 -121.71680664 176.73075473 -123.671875 178.9609375 C-124.21303955 179.5796875 -124.7542041 180.1984375 -125.31176758 180.8359375 C-126.37431028 182.04607773 -127.44167092 183.25200907 -128.5144043 184.453125 C-132.38952316 188.88016378 -132.38952316 188.88016378 -134.5 194.3125 C-133.6560823 196.27185435 -133.6560823 196.27185435 -132.5 198.3125 C-131.42597106 207.28912082 -132.1321766 214.88230234 -137.5 222.3125 C-141.91823787 227.33763868 -148.80370518 230.64022876 -155.41015625 231.5859375 C-162.79086947 231.93421072 -168.80958978 229.57649727 -174.359375 224.66796875 C-180.52818841 217.90365107 -182.1558835 211.65077692 -181.90625 202.6015625 C-181.02758901 195.48778796 -178.130968 190.23835553 -172.5 185.8125 C-167.46919317 182.32339204 -163.19796646 181.03359321 -157.0625 181.0625 C-155.97066406 181.05734375 -154.87882812 181.0521875 -153.75390625 181.046875 C-150.38298422 181.32205231 -147.65124375 182.11474219 -144.5 183.3125 C-137.05166787 174.64483857 -137.05166787 174.64483857 -129.640625 165.9453125 C-129.19074219 165.41494385 -128.74085938 164.8845752 -128.27734375 164.33813477 C-127.38230183 163.27722957 -126.49167947 162.21258034 -125.60546875 161.14428711 C-123.25913684 158.32638011 -120.85815753 155.62133129 -118.296875 152.99609375 C-117.77681885 152.44187744 -117.2567627 151.88766113 -116.72094727 151.31665039 C-115.73191864 150.26589605 -114.71787025 149.23788999 -113.67553711 148.23999023 C-112.03735385 146.58794174 -112.03735385 146.58794174 -110.5 143.3125 C-110.67796233 140.64770252 -111.25693237 138.20765697 -111.87231445 135.60888672 C-113.01252523 129.62089531 -112.79504756 123.5266926 -112.76074219 117.45068359 C-112.74998481 115.18430033 -112.76071339 112.91870364 -112.7734375 110.65234375 C-112.78045705 103.28479753 -112.49369339 96.45595493 -110.5 89.3125 C-110.30019531 88.34183594 -110.10039063 87.37117188 -109.89453125 86.37109375 C-106.99601016 73.31802228 -101.23850622 61.18101178 -93.5 50.3125 C-92.78328125 49.28769531 -92.0665625 48.26289062 -91.328125 47.20703125 C-75.2441427 24.8974241 -51.18158056 8.88027368 -24.5 2.3125 C-23.78150879 2.12921143 -23.06301758 1.94592285 -22.32275391 1.75708008 C-14.90088261 0.04276021 -7.5918824 -0.03449549 0 0 Z " fill="#D8A456" transform="translate(190.5,2.6875)"/>
<path d="M0 0 C0.84775497 -0.00945648 1.69550995 -0.01891296 2.56895447 -0.02865601 C3.4814949 -0.02258331 4.39403534 -0.01651062 5.33422852 -0.01025391 C6.74527611 -0.01455917 6.74527611 -0.01455917 8.18482971 -0.01895142 C10.17449546 -0.02099306 12.16418123 -0.0154562 14.15380859 -0.00292969 C17.19813018 0.01310457 20.24112051 -0.00276584 23.28540039 -0.02197266 C25.21834603 -0.01998989 27.15129084 -0.01614553 29.08422852 -0.01025391 C29.99474472 -0.0163266 30.90526093 -0.02239929 31.84336853 -0.02865601 C33.11972923 -0.01447128 33.11972923 -0.01447128 34.421875 0 C35.16783432 0.00238678 35.91379364 0.00477356 36.68235779 0.00723267 C39.61951817 0.5417601 40.79374057 1.10967423 42.77563477 3.38818359 C43.15640522 6.40848662 43.2814282 9.06248176 43.22973633 12.08227539 C43.23032043 12.97028839 43.23090454 13.85830139 43.23150635 14.77322388 C43.22871713 17.71167949 43.19758566 20.64912371 43.16625977 23.58740234 C43.15880036 25.6233515 43.15310601 27.65930783 43.14910889 29.69526672 C43.13382899 35.05648589 43.0945267 40.41727226 43.05029297 45.77832031 C43.00939115 51.24782455 42.99110874 56.71739866 42.97094727 62.18701172 C42.92803488 72.92092593 42.85975492 83.65451879 42.77563477 94.38818359 C44.28915527 94.3567627 44.28915527 94.3567627 45.83325195 94.32470703 C49.58278163 94.25221575 53.33224959 94.20635139 57.08227539 94.16845703 C58.7041262 94.14836216 60.32590474 94.12108105 61.94750977 94.08642578 C64.28102457 94.03781089 66.61358034 94.01519471 68.94750977 93.99755859 C69.67057312 93.97691345 70.39363647 93.95626831 71.13861084 93.93499756 C74.34854545 93.93357223 76.46683496 94.20186049 79.23452759 95.87182617 C81.45727629 99.50118451 81.31798721 102.91282858 81.26147461 107.04052734 C81.2652713 107.91250763 81.26906799 108.78448792 81.27297974 109.68289185 C81.28038691 112.56418877 81.25900049 115.44447634 81.23657227 118.32568359 C81.23418782 120.32820517 81.23328252 122.33072902 81.23379517 124.33325195 C81.23066686 128.52976489 81.21409918 132.72593626 81.18725586 136.92236328 C81.15327611 142.30276181 81.14562729 147.68278494 81.14714622 153.0632782 C81.14660247 157.19823798 81.13563444 161.33311563 81.12114334 165.4680481 C81.11477701 167.45198953 81.11083683 169.43594027 81.10935593 171.41989136 C81.10502121 174.19203555 81.08751642 176.96378124 81.06616211 179.73583984 C81.06706848 180.55674103 81.06797485 181.37764221 81.06890869 182.22341919 C80.98814642 189.39066539 80.98814642 189.39066539 78.77563477 192.38818359 C74.81851369 195.02626431 71.42312067 194.66567152 66.83071899 194.64215088 C65.44171625 194.64683085 65.44171625 194.64683085 64.02465284 194.65160537 C60.90854251 194.65960974 57.7926256 194.65325217 54.67651367 194.64697266 C52.44775783 194.64968147 50.21900288 194.65324178 47.99024963 194.65759277 C41.92621316 194.66673311 35.86224451 194.66316546 29.79820681 194.6568346 C23.4597381 194.65178186 17.12127532 194.65646415 10.7828064 194.65960693 C-0.54779415 194.66348276 -11.87836017 194.65725406 -23.20895381 194.64708826 C-33.48168442 194.63815682 -43.75436982 194.63970082 -54.02709961 194.64892578 C-65.95322439 194.65963047 -77.87932169 194.66361163 -89.80545294 194.65770125 C-96.11962509 194.65458038 -102.43376609 194.65417535 -108.74793625 194.66077423 C-114.6855155 194.66654561 -120.62300929 194.66255451 -126.5605793 194.65098572 C-128.74188279 194.64833779 -130.92319345 194.64910647 -133.10449409 194.65351105 C-136.07825439 194.65896276 -139.05173949 194.65213668 -142.02548218 194.64215088 C-143.32543422 194.64884304 -143.32543422 194.64884304 -144.65164793 194.6556704 C-148.91104717 194.62786135 -152.40550762 194.51922736 -156.22436523 192.38818359 C-157.35999655 190.11692096 -157.37379821 188.80175517 -157.41723633 186.27734375 C-157.43329926 185.42951324 -157.44936218 184.58168274 -157.46591187 183.7081604 C-157.51034061 179.83393135 -157.55141567 175.9598733 -157.57446289 172.08544922 C-157.59103637 170.0407372 -157.61834462 167.99608344 -157.65649414 165.95166016 C-157.71118958 163.00571605 -157.7331241 160.06112916 -157.74780273 157.11474609 C-157.77047211 156.20109283 -157.79314148 155.28743958 -157.8164978 154.34609985 C-157.79566624 148.10303606 -157.79566624 148.10303606 -155.15966797 144.8046875 C-151.46213608 143.02035081 -148.83776014 142.93219324 -144.73608398 142.99755859 C-144.03288528 143.00321838 -143.32968658 143.00887817 -142.60517883 143.01470947 C-140.37336276 143.0369859 -138.14319062 143.08715987 -135.91186523 143.13818359 C-134.39300832 143.15826016 -132.87412608 143.17650891 -131.35522461 143.19287109 C-127.64440978 143.23682002 -123.93454813 143.30578438 -120.22436523 143.38818359 C-120.24007568 142.55625488 -120.24007568 142.55625488 -120.25610352 141.70751953 C-120.29778528 139.184454 -120.32372961 136.66146107 -120.34936523 134.13818359 C-120.36612305 133.26548828 -120.38288086 132.39279297 -120.40014648 131.49365234 C-120.40981445 130.22714844 -120.40981445 130.22714844 -120.41967773 128.93505859 C-120.43538818 127.77248535 -120.43538818 127.77248535 -120.45141602 126.58642578 C-120.19347419 124.0891051 -119.55196929 122.50978692 -118.22436523 120.38818359 C-115.15841929 118.85521062 -111.95324671 119.26686905 -108.59155273 119.29052734 C-107.8397171 119.29194229 -107.08788147 119.29335724 -106.31326294 119.29481506 C-103.90859014 119.30041894 -101.50400996 119.31297203 -99.09936523 119.32568359 C-97.47046033 119.3306981 -95.84155396 119.33526109 -94.21264648 119.33935547 C-90.21651697 119.35038962 -86.22045681 119.36765681 -82.22436523 119.38818359 C-82.25578613 118.1472998 -82.25578613 118.1472998 -82.2878418 116.88134766 C-82.37098143 113.13374989 -82.42302054 109.3863461 -82.47436523 105.63818359 C-82.50788086 104.33623047 -82.54139648 103.03427734 -82.57592773 101.69287109 C-82.59526367 99.81728516 -82.59526367 99.81728516 -82.61499023 97.90380859 C-82.64641113 96.17565918 -82.64641113 96.17565918 -82.6784668 94.41259766 C-82.22436523 91.38818359 -82.22436523 91.38818359 -80.67553711 89.00537109 C-77.35196824 86.81261012 -74.45970761 86.88435849 -70.61499023 86.99755859 C-69.5247757 87.00604828 -69.5247757 87.00604828 -68.41253662 87.01470947 C-66.09913278 87.03703806 -63.78729803 87.08722311 -61.47436523 87.13818359 C-59.90277308 87.15825336 -58.33115656 87.17650331 -56.75952148 87.19287109 C-52.91386806 87.23689067 -49.06938235 87.30588985 -45.22436523 87.38818359 C-45.25578613 85.97339722 -45.25578613 85.97339722 -45.2878418 84.5300293 C-45.35617951 81.01690835 -45.40624271 77.50449774 -45.4440918 73.9909668 C-45.46415726 72.47294949 -45.49141658 70.95500901 -45.52612305 69.43725586 C-45.57486916 67.25013238 -45.59738329 65.06403407 -45.61499023 62.87646484 C-45.64641113 60.90480347 -45.64641113 60.90480347 -45.6784668 58.89331055 C-45.13688073 54.71290671 -44.45984518 53.09552656 -41.22436523 50.38818359 C-38.40391869 49.94038667 -36.20159284 49.79977816 -33.39624023 49.89990234 C-32.6472345 49.90697708 -31.89822876 49.91405182 -31.12652588 49.92134094 C-28.74144287 49.94926221 -26.35873467 50.01198824 -23.97436523 50.07568359 C-22.35460755 50.10076977 -20.73481295 50.12358239 -19.11499023 50.14404297 C-15.15053784 50.19908035 -11.18785371 50.28533037 -7.22436523 50.38818359 C-7.23435799 49.51494698 -7.23435799 49.51494698 -7.24455261 48.62406921 C-7.31084214 42.57357294 -7.35613916 36.52317955 -7.38916016 30.47241211 C-7.40426126 28.21325492 -7.42474365 25.9541271 -7.45068359 23.69506836 C-7.48700831 20.45077267 -7.50407832 17.20686403 -7.51733398 13.96240234 C-7.53281784 12.94981857 -7.5483017 11.9372348 -7.56425476 10.89396667 C-7.56459465 9.48284355 -7.56459465 9.48284355 -7.56494141 8.04321289 C-7.57493416 6.80078072 -7.57493416 6.80078072 -7.58512878 5.5332489 C-7.22436523 3.38818359 -7.22436523 3.38818359 -5.96710205 1.62150574 C-3.81331247 0.09728455 -2.62426209 0.00840558 0 0 Z " fill="#D9A658" transform="translate(303.224365234375,183.61181640625)"/>
<path d="M0 0 C2.30855613 1.7383946 4.53985283 3.54288771 6.76171875 5.390625 C7.55320312 6.03515625 8.3446875 6.6796875 9.16015625 7.34375 C22.54710807 18.74588562 33.7293717 34.40645372 38.76171875 51.390625 C38.94921875 54.390625 38.94921875 54.390625 38.76171875 56.390625 C36.74978852 56.13913372 34.7512866 55.78143297 32.76171875 55.390625 C32.065625 55.2875 31.36953125 55.184375 30.65234375 55.078125 C28.20152649 54.50567133 26.70613643 54.00946577 24.76171875 52.390625 C23.90778542 49.41534151 23.62011183 46.54507292 23.296875 43.46875 C22.20647551 37.19696313 18.0660356 33.18456485 13.13671875 29.453125 C7.01526917 25.71223915 0.81904732 25.72928356 -6.23828125 26.390625 C-9.22042597 27.33261179 -11.64976709 28.65288123 -14.23828125 30.390625 C-15.14578125 30.968125 -16.05328125 31.545625 -16.98828125 32.140625 C-21.67959014 36.83193389 -24.33754034 43.34594866 -24.61328125 49.953125 C-24.57787012 55.99957574 -22.20799113 60.26112612 -19.23828125 65.390625 C-18.56615326 66.72121366 -17.89862805 68.05415041 -17.23828125 69.390625 C-17.81461304 70.20152588 -17.81461304 70.20152588 -18.40258789 71.02880859 C-23.97592201 78.92604926 -29.32637781 86.96615588 -34.67578125 95.015625 C-35.60731313 96.41543696 -36.53895301 97.81517705 -37.47070312 99.21484375 C-39.72780638 102.605945 -41.98345326 105.99801049 -44.23828125 109.390625 C-44.8415625 109.25060059 -45.44484375 109.11057617 -46.06640625 108.96630859 C-46.865625 108.78406738 -47.66484375 108.60182617 -48.48828125 108.4140625 C-49.2771875 108.23278809 -50.06609375 108.05151367 -50.87890625 107.86474609 C-57.597089 106.51471392 -62.07148596 107.3617814 -68.16015625 110.515625 C-70.23828125 111.390625 -70.23828125 111.390625 -74.23828125 111.390625 C-75.82698059 110.32331848 -75.82698059 110.32331848 -77.37036133 108.80786133 C-78.24565239 107.96116631 -78.24565239 107.96116631 -79.1386261 107.09736633 C-79.75545761 106.47871201 -80.37228912 105.86005768 -81.0078125 105.22265625 C-81.64820969 104.59082932 -82.28860687 103.95900238 -82.94841003 103.30802917 C-84.29907095 101.96885429 -85.64452064 100.62440605 -86.98510742 99.27514648 C-89.04319147 97.2107381 -91.12647067 95.17438963 -93.21289062 93.13867188 C-94.52115116 91.83495687 -95.82784663 90.52966906 -97.1328125 89.22265625 C-97.75976517 88.61412308 -98.38671783 88.0055899 -99.03266907 87.37861633 C-100.60501787 85.77176803 -102.01679385 84.27793658 -103.23828125 82.390625 C-103.17932311 79.43576648 -102.53764242 77.98934733 -101.23828125 75.390625 C-100.39441809 65.62394642 -101.35450927 59.27308121 -107.42578125 51.640625 C-114.21965237 46.20552811 -120.46659987 44.69789817 -129.15234375 45.01171875 C-135.36057591 45.77399536 -139.34251407 48.14587956 -143.55078125 52.703125 C-148.01963139 58.45052899 -149.65478553 63.65864979 -149.58984375 70.8671875 C-149.20880629 73.6021897 -148.30157265 75.23739108 -146.98828125 77.640625 C-146.12109375 79.8203125 -146.12109375 79.8203125 -146.23828125 82.390625 C-149.31065235 87.70573583 -153.91484503 92.08702755 -158.23828125 96.390625 C-158.79563965 96.94830566 -159.35299805 97.50598633 -159.92724609 98.08056641 C-160.3598877 98.51288574 -160.7925293 98.94520508 -161.23828125 99.390625 C-163.34871881 95.16974987 -162.42323547 89.5889943 -162.42578125 84.953125 C-162.43802734 83.81423828 -162.45027344 82.67535156 -162.46289062 81.50195312 C-162.48098079 70.9433287 -160.88886548 61.37011727 -157.48828125 51.390625 C-157.22370117 50.61299805 -156.95912109 49.83537109 -156.68652344 49.03417969 C-147.58775511 23.09783296 -128.15460764 3.81309464 -104.30078125 -8.921875 C-70.64398105 -24.9554114 -30.33839788 -21.81399638 0 0 Z " fill="#FEFEFD" transform="translate(252.23828125,33.609375)"/>
<path d="M0 0 C3.65200399 1.08443204 7.29525065 2.1957832 10.9375 3.3125 C12.49887695 3.7755957 12.49887695 3.7755957 14.09179688 4.24804688 C15.08115234 4.55419922 16.07050781 4.86035156 17.08984375 5.17578125 C18.46450806 5.59210815 18.46450806 5.59210815 19.86694336 6.0168457 C20.57085205 6.34128662 21.27476074 6.66572754 22 7 C26.34999042 20.04997127 23.30026698 37.25945745 19 50 C18.78569336 50.6590332 18.57138672 51.31806641 18.35058594 51.99707031 C8.93401689 80.65798136 -10.13772444 101.34964365 -36.89453125 114.98828125 C-41.82105624 117.43639038 -46.69785207 119.50452238 -52 121 C-53.00804687 121.29648438 -54.01609375 121.59296875 -55.0546875 121.8984375 C-71.56854395 125.98009363 -91.74343266 126.29888111 -108 121 C-108.62342285 120.80132324 -109.2468457 120.60264648 -109.88916016 120.39794922 C-124.21890174 115.73999816 -136.50165106 108.8067855 -148 99 C-149.5159375 97.8553125 -149.5159375 97.8553125 -151.0625 96.6875 C-163.11110781 85.66430562 -173.65027037 69.86705721 -178 54 C-177.82920299 49.55270867 -176.02665297 47.5172543 -173 44.375 C-168.70653787 39.80675629 -164.74880187 35.05801717 -160.84765625 30.15234375 C-159 28 -159 28 -157 27 C-156.42894531 27.30421875 -155.85789062 27.6084375 -155.26953125 27.921875 C-152.2994132 29.33280888 -149.96526314 29.26540664 -146.6875 29.25 C-145.05361328 29.25773437 -145.05361328 29.25773437 -143.38671875 29.265625 C-139.70891183 28.97716956 -136.52592414 28.05445263 -133 27 C-128.39363274 31.23309532 -123.84082023 35.51507981 -119.328125 39.84790039 C-117.78938805 41.31160455 -116.23740337 42.76152025 -114.671875 44.1965332 C-100.90560594 56.84341496 -100.90560594 56.84341496 -100.0703125 63.21020508 C-99.98935993 65.85379259 -100.25516187 68.12344734 -100.6328125 70.77099609 C-101.23445706 76.06178798 -99.19636442 79.88929095 -96 84 C-90.59297181 89.22170666 -84.91311831 92.2649893 -77.3125 92.4375 C-70.06609206 92.28597609 -64.27836865 90.31237662 -59.1171875 85.09765625 C-53.46176491 77.98056647 -52.06322175 70.97968863 -53 62 C-54.45723885 58.66556056 -54.45723885 58.66556056 -56 56 C-55.56593839 52.82233565 -54.25234457 50.48654594 -52.58251953 47.78222656 C-52.07753937 46.96167786 -51.5725592 46.14112915 -51.05227661 45.29571533 C-48.7159317 41.58002791 -46.36535624 37.87406844 -43.99316406 34.18115234 C-42.74960564 32.23000723 -41.52193636 30.26864213 -40.31054688 28.29736328 C-38.55880941 25.44912203 -36.75881509 22.63733089 -34.9453125 19.828125 C-34.41463165 18.94384827 -33.88395081 18.05957153 -33.33718872 17.14849854 C-31.69866442 14.68097746 -30.34276372 12.81765538 -28 11 C-24.21580916 10.29464048 -20.80294486 10.62628701 -17 11 C-10.77569938 9.58968378 -6.13864696 6.91464327 -2 2 C-1.34 1.34 -0.68 0.68 0 0 Z " fill="#FEFEFE" transform="translate(273,97)"/>
<path d="M0 0 C7.92 0 15.84 0 24 0 C24 55.77 24 111.54 24 169 C16.08 169 8.16 169 0 169 C0 113.23 0 57.46 0 0 Z " fill="#FEFEFE" transform="translate(309,196)"/>
<path d="M0 0 C8.25 0 16.5 0 25 0 C25 39.27 25 78.54 25 119 C16.75 119 8.5 119 0 119 C0 79.73 0 40.46 0 0 Z " fill="#FEFEFE" transform="translate(271,246)"/>
<path d="M0 0 C7.92 0 15.84 0 24 0 C24 26.73 24 53.46 24 81 C16.08 81 8.16 81 0 81 C0 54.27 0 27.54 0 0 Z " fill="#FFFFFF" transform="translate(234,284)"/>
<path d="M0 0 C8.25 0 16.5 0 25 0 C25 24.75 25 49.5 25 75 C16.75 75 8.5 75 0 75 C0 50.25 0 25.5 0 0 Z " fill="#FFFFFF" transform="translate(346,290)"/>
<path d="M0 0 C8.25 0 16.5 0 25 0 C25 16.5 25 33 25 50 C16.75 50 8.5 50 0 50 C0 33.5 0 17 0 0 Z " fill="#FFFFFF" transform="translate(196,315)"/>
<path d="M0 0 C7.92 0 15.84 0 24 0 C24 8.25 24 16.5 24 25 C16.08 25 8.16 25 0 25 C0 16.75 0 8.5 0 0 Z " fill="#FFFFFF" transform="translate(159,340)"/>
<path d="M0 0 C4.32777286 2.20471448 7.26335482 4.40299806 9 9 C9.19923841 13.55757856 8.59308006 17.00447276 6.25 20.9375 C2.9767995 23.93793379 0.43117578 24.81729671 -3.9375 25.375 C-8.82725065 24.77625502 -11.76569144 22.48117027 -14.875 18.75 C-16.37988878 15.07138298 -16.92618982 11.85790879 -16 8 C-11.90872108 1.48147915 -7.82362951 -1.04897826 0 0 Z " fill="#FDFCFA" transform="translate(362,109)"/>
<path d="M0 0 C3.43761572 2.12108204 5.77560839 4.1042085 7 8 C7.46931049 12.2237944 7.28387834 14.45327135 5.3125 18.25 C1.76760474 22.46555112 -0.43313981 23.80103363 -5.9375 24.5 C-10.70314808 24.31982427 -12.76251637 22.39164952 -16 19 C-18.54641337 15.52761813 -18.43529792 12.20787993 -18 8 C-13.77365745 -0.1396227 -8.66866317 -2.32842495 0 0 Z " fill="#FDFCFA" transform="translate(39,197)"/>
<path d="M0 0 C3.56322101 2.19858317 5.44603084 4.14671902 7 8 C7.23974502 12.46724889 6.53895094 16.09533235 4.25 19.9375 C0.46351616 23.40844352 -2.43250522 24.21849895 -7.5 24 C-11.00514335 23.52680565 -12.71650471 22.77746969 -15 20.0625 C-17.86031704 15.68263953 -19.01852293 12.24350693 -18 7 C-13.44644787 -0.55082695 -8.36236014 -1.9105568 0 0 Z " fill="#FDFCFA" transform="translate(133,91)"/>
<path d="M0 0 C3.48718682 2.19106428 4.97050111 4.42794445 6.3125 8.375 C6.88905769 12.32853844 6.50756815 14.00653793 4.625 17.5625 C1.3096489 21.59468378 -0.89542042 23.17950041 -6.125 23.75 C-10.10095159 23.33147878 -12.38473365 22.62688615 -15.6875 20.375 C-18.3838019 16.51030061 -19.28719567 12.97705711 -19.109375 8.3359375 C-18.1932517 4.07766066 -15.23161377 1.47082268 -11.75 -1 C-7.39365949 -2.32010318 -4.02754812 -2.03926487 0 0 Z " fill="#FEFCFA" transform="translate(258.6875,72.625)"/>
<path d="M0 0 C3.66195861 1.59215592 6.20204902 3.40409804 8 7 C8.59041413 11.31083197 8.49364883 14.86460769 6.75 18.875 C4.36984516 21.76518802 2.38108991 23.72651685 -1.3671875 24.46875 C-5.82426247 24.52428988 -9.0126954 24.53016696 -12.5625 21.625 C-16.3057723 17.59378368 -16.39037018 14.90519941 -16.359375 9.55078125 C-15.78039966 5.44131496 -14.00085071 3.78650423 -11 1 C-7.55105608 -0.72447196 -3.77843255 -0.36671096 0 0 Z " fill="#FEFDFB" transform="translate(200,153)"/>
<path d="M0 0 C2.31 0 4.62 0 7 0 C7 126.72 7 253.44 7 384 C6.01 383.67 5.02 383.34 4 383 C4.33 382.01 4.66 381.02 5 380 C5.09444051 377.92928312 5.12734953 375.85559144 5.12863445 373.78272247 C5.1318589 372.47232608 5.13508335 371.16192969 5.1384055 369.81182432 C5.13693422 368.348874 5.13536649 366.88592376 5.13371277 365.42297363 C5.13557989 363.87572184 5.1378802 362.32847052 5.14057809 360.78121996 C5.1467146 356.5181943 5.14656033 352.2551882 5.14538372 347.99215913 C5.14518018 343.39906144 5.15069391 338.80597011 5.15544128 334.21287537 C5.16375819 325.21053654 5.16649658 316.20820427 5.16705366 307.20586193 C5.16752827 299.89188409 5.16958022 292.57790842 5.17275429 285.26393127 C5.18156318 264.54527846 5.18617322 243.82663084 5.18542381 223.10797614 C5.18538386 221.99033718 5.1853439 220.87269822 5.18530273 219.72119141 C5.18526185 218.6021943 5.18522097 217.4831972 5.18517885 216.33029109 C5.18477217 198.18419311 5.19434683 180.03811585 5.2084411 161.89202386 C5.22278583 143.27721865 5.22971236 124.66242355 5.22884732 106.04761267 C5.22851473 95.58972136 5.23128924 85.13185179 5.24202538 74.67396545 C5.25110532 65.77206492 5.25332631 56.87019598 5.24651595 47.96829283 C5.2432382 43.42318015 5.24323901 38.87812817 5.2518692 34.33302116 C5.25967994 30.17689665 5.25835893 26.02088153 5.24958507 21.86475986 C5.24803803 20.35673029 5.249911 18.84869277 5.25544515 17.34067255 C5.26244288 15.2995517 5.25605222 13.2583978 5.24888897 11.21727753 C5.24910634 10.08088192 5.24932371 8.9444863 5.24954766 7.77365446 C5.20361203 4.78768258 5.20361203 4.78768258 3 2 C2.01 1.34 1.02 0.68 0 0 Z " fill="#D8DBEB" transform="translate(386,0)"/>
</svg>
