<svg xmlns="http://www.w3.org/2000/svg" enable-background="new 0 0 512 512" viewBox="0 0 512 512" id="workgroup">
  <path fill-rule="evenodd" d="M52.039,141.224c0,4.418-3.582,8-8,8s-8-3.582-8-8V83.789c0-11.705,4.783-22.342,12.488-30.047
	c7.705-7.705,18.341-12.488,30.047-12.488h57.436c4.418,0,8,3.582,8,8s-3.582,8-8,8H78.574c-7.289,0-13.922,2.988-18.734,7.801
	c-4.813,4.813-7.801,11.446-7.801,18.734V141.224L52.039,141.224z M256,342.624c21.674,0,39.244,17.571,39.244,39.244
	c0,21.674-17.57,39.244-39.244,39.244c-21.674,0-39.244-17.57-39.244-39.244C216.756,360.194,234.326,342.624,256,342.624
	L256,342.624z M256,431.595c34.864,0,64.36,22.986,74.159,54.63c1.722,5.559,0.786,11.091-2.667,15.775
	c-3.453,4.685-8.46,7.214-14.28,7.214H198.789c-5.82,0-10.827-2.53-14.28-7.214c-3.453-4.685-4.389-10.216-2.667-15.775
	C191.64,454.581,221.136,431.595,256,431.595L256,431.595z M83,172.705c21.674,0,39.244,17.57,39.244,39.244
	c0,21.674-17.571,39.244-39.244,39.244c-21.674,0-39.244-17.57-39.244-39.244C43.756,190.275,61.327,172.705,83,172.705L83,172.705z
	 M83,261.676c34.864,0,64.36,22.986,74.159,54.63c1.722,5.559,0.786,11.091-2.667,15.775c-3.453,4.685-8.46,7.215-14.28,7.215
	H25.789c-5.82,0-10.827-2.53-14.28-7.215c-3.453-4.684-4.389-10.216-2.667-15.775C18.64,284.662,48.137,261.676,83,261.676
	L83,261.676z M429,172.705c21.674,0,39.244,17.57,39.244,39.244c0,21.674-17.571,39.244-39.244,39.244
	c-21.674,0-39.244-17.57-39.244-39.244C389.756,190.275,407.326,172.705,429,172.705L429,172.705z M429,261.676
	c34.864,0,64.36,22.986,74.159,54.63c1.722,5.559,0.786,11.091-2.667,15.775c-3.453,4.685-8.46,7.215-14.28,7.215H371.789
	c-5.82,0-10.827-2.53-14.28-7.215c-3.453-4.684-4.389-10.216-2.667-15.775C364.64,284.662,394.137,261.676,429,261.676L429,261.676z
	 M256,2.785c21.674,0,39.244,17.571,39.244,39.244c0,21.674-17.57,39.244-39.244,39.244c-21.674,0-39.244-17.57-39.244-39.244
	C216.756,20.356,234.326,2.785,256,2.785L256,2.785z M256,91.757c34.864,0,64.36,22.986,74.159,54.63
	c1.722,5.559,0.786,11.091-2.667,15.775c-3.453,4.685-8.46,7.215-14.28,7.215H198.789c-5.82,0-10.827-2.53-14.28-7.215
	c-3.453-4.684-4.389-10.216-2.667-15.775C191.64,114.743,221.136,91.757,256,91.757L256,91.757z M375.99,57.253
	c-4.418,0-8-3.582-8-8s3.582-8,8-8h57.436c11.706,0,22.342,4.783,30.047,12.488c7.705,7.705,12.488,18.342,12.488,30.047v57.436
	c0,4.418-3.582,8-8,8s-8-3.582-8-8V83.789c0-7.289-2.988-13.922-7.801-18.734c-4.813-4.813-11.445-7.801-18.734-7.801H375.99
	L375.99,57.253z M459.961,381.204c0-4.418,3.582-8,8-8s8,3.582,8,8v57.436c0,11.706-4.783,22.341-12.488,30.047
	c-7.705,7.705-18.341,12.488-30.047,12.488H375.99c-4.418,0-8-3.582-8-8c0-4.418,3.582-8,8-8h57.436
	c7.289,0,13.922-2.988,18.734-7.801c4.813-4.813,7.801-11.445,7.801-18.734V381.204L459.961,381.204z M136.01,465.175
	c4.418,0,8,3.582,8,8c0,4.418-3.582,8-8,8H78.574c-11.705,0-22.341-4.783-30.047-12.488c-7.706-7.706-12.488-18.341-12.488-30.047
	v-57.436c0-4.418,3.582-8,8-8s8,3.582,8,8v57.436c0,7.289,2.988,13.922,7.801,18.734c4.813,4.813,11.446,7.801,18.734,7.801H136.01z
	" clip-rule="evenodd" fill="#d8a353" class="color000000 svgShape"></path>
</svg>
