<svg xmlns="http://www.w3.org/2000/svg" enable-background="new 0 0 512 512" viewBox="0 0 512 512" id="Hockey">
  <path d="M123.213 389.327c-10.996 8.873-25.259 7.948-34.077.817-16.276-13.01-5.553-29.45-3.974-35.166 6.151-22.101-6.805-45.019-28.96-51.171-22.101-6.097-45.019 6.859-51.116 28.96-.109-.925-26.511 79.75 46.053 120.305 38.813 21.774 87.969 14.317 117.746-18.073l69.624-74.306-40.991-40.991L123.213 389.327zM507.317 51.657c-6.097-6.532-16.276-6.859-22.809-.762l-98.04 91.834 29.015 29.014 91.835-98.04C513.088 67.553 513.197 57.863 507.317 51.657z" fill="#d8a353" class="color000000 svgShape"></path>
  <polygon points="205.466 312.299 245.967 352.8 275.254 321.499 236.768 283.012" fill="#d8a353" class="color000000 svgShape"></polygon>
  <polygon points="277.704 244.635 313.577 280.508 340.361 251.929 306.283 217.852" fill="#d8a353" class="color000000 svgShape"></polygon>
  <polygon points="347.274 179.474 378.738 210.938 408.025 179.692 378.52 150.187" fill="#d8a353" class="color000000 svgShape"></polygon>
  <polygon points="314.212 210.4 347.808 243.997 371.292 218.937 339.306 186.951" fill="#d8a353" class="color000000 svgShape"></polygon>
  <polygon points="244.688 275.537 282.672 313.521 306.156 288.461 269.748 252.053" fill="#d8a353" class="color000000 svgShape"></polygon>
</svg>
