<svg xmlns="http://www.w3.org/2000/svg" viewBox="0 0 48 48" id="DataMonitoring">
  <path d="M19,15V35H13V15a1,1,0,0,1,1-1h4A1,1,0,0,1,19,15Zm-8,6a1,1,0,0,0-1-1H6a1,1,0,0,0-1,1V35h6Zm15-1H22a1,1,0,0,0-1,1v8.28a16.47,16.47,0,0,1,6-2.7V21A1,1,0,0,0,26,20Zm16,0H38a1,1,0,0,0-1,1v5.6a17.13,17.13,0,0,1,6,2.69V21A1,1,0,0,0,42,20Zm-7,6.22V15a1,1,0,0,0-1-1H30a1,1,0,0,0-1,1V26.21A20.18,20.18,0,0,1,32,26,19.8,19.8,0,0,1,35,26.22ZM46,38H43.5c-1.09,1.39-4.9,5.63-10.78,6a6.5,6.5,0,0,1-1.44,0c-6.88-.39-10.93-6.14-11.1-6.39a1,1,0,0,1,0-1.14c.17-.25,4.22-6,11.1-6.39a6.5,6.5,0,0,1,1.44,0c5.88.33,9.69,4.57,10.78,6H46ZM35,37a3,3,0,1,0-3,3A3,3,0,0,0,35,37Zm-9.3,3a7,7,0,0,1-.7-3,6.94,6.94,0,0,1,.71-3,15.64,15.64,0,0,0-3.44,3A15.79,15.79,0,0,0,25.7,40Zm16-3a15.79,15.79,0,0,0-3.43-3,7,7,0,0,1,.7,3,6.94,6.94,0,0,1-.71,3A15.64,15.64,0,0,0,41.73,37ZM2,38H19V36H2ZM8,17a3,3,0,0,0,3-3,3,3,0,0,0-.22-1.11L14.54,9.6a2.86,2.86,0,0,0,2.92,0l3.76,3.29A3,3,0,0,0,21,14a3,3,0,0,0,6,0,2.91,2.91,0,0,0-.15-.89l3.49-2.61a3,3,0,0,0,3.32,0l3.49,2.61A2.91,2.91,0,0,0,37,14a3,3,0,1,0,3-3,3.06,3.06,0,0,0-1.66.5L34.85,8.89A2.91,2.91,0,0,0,35,8a3,3,0,0,0-6,0,2.91,2.91,0,0,0,.15.89L25.66,11.5A3.06,3.06,0,0,0,24,11a3,3,0,0,0-1.46.39L18.78,8.11A3,3,0,0,0,19,7a3,3,0,0,0-6,0,3,3,0,0,0,.22,1.11L9.46,11.4A2.9,2.9,0,0,0,8,11a3,3,0,0,0,0,6ZM21.7,32.61C24,30.35,27.84,29,32,29s8.07,1.38,10.39,3.7l1.41-1.42C41.12,28.6,36.7,27,32,27c-6.73,0-10.42,2.92-11.7,4.18ZM32,36a1,1,0,1,0,1,1A1,1,0,0,0,32,36Z" fill="#d8a353" class="color000000 svgShape"></path>
</svg>
