<?xml version="1.0" encoding="iso-8859-1"?>
<!-- Uploaded to: SVG Repo, www.svgrepo.com, Generator: SVG Repo Mixer Tools -->
<!DOCTYPE svg PUBLIC "-//W3C//DTD SVG 1.1//EN" "http://www.w3.org/Graphics/SVG/1.1/DTD/svg11.dtd">
<svg fill="#000000" version="1.1" id="Capa_1" xmlns="http://www.w3.org/2000/svg" xmlns:xlink="http://www.w3.org/1999/xlink" 
	 width="800px" height="800px" viewBox="0 0 394 394" xml:space="preserve">
<g>
	<g>
		<path d="M382.613,351H57.086l58.398-70.05l0.96,0.304c2.561,0.812,5.229,1.223,7.932,1.223c13.223,0,24.417-9.884,26.039-22.991
			l0.124-1l55.106-14.882l0.61,0.8c5.017,6.562,12.621,10.325,20.863,10.325c14.475,0,26.247-11.773,26.247-26.247
			c0-10.703-6.403-20.241-16.315-24.3l-0.933-0.381v-54.136l0.933-0.381c9.881-4.043,16.285-13.549,16.315-24.217
			c0-0.079,0-0.158-0.002-0.237l-0.041-1.486l72.546-31.74l0.723,0.7c4.928,4.781,11.416,7.414,18.272,7.414
			c14.474,0,26.248-11.775,26.248-26.249c0-14.474-11.774-26.249-26.248-26.249c-14.43,0-26.204,11.738-26.25,26.166
			c0,0.08,0.002,0.159,0.005,0.238l0.038,1.486l-72.545,31.74l-0.723-0.701c-4.928-4.78-11.417-7.413-18.271-7.413
			c-14.475,0-26.248,11.775-26.248,26.249c0,10.704,6.402,20.242,16.316,24.3l0.932,0.38V203.8l-0.934,0.382
			c-8.771,3.59-14.944,11.652-16.107,21.041l-0.123,1l-55.105,14.883l-0.61-0.797c-5.017-6.562-12.621-10.328-20.863-10.328
			c-14.474,0-26.249,11.774-26.249,26.248c0,4.345,1.029,8.482,3.06,12.302l0.474,0.891l-54.048,64.832V8c0-4.418-3.582-8-8-8h-11
			c-4.418,0-8,3.582-8,8v29.5h-9.225c-4.418,0-8,3.582-8,8v2c0,4.418,3.582,8,8,8h9.225v72h-9.225c-4.418,0-8,3.582-8,8v2
			c0,4.418,3.582,8,8,8h9.225v72h-9.225c-4.418,0-8,3.582-8,8v2c0,4.418,3.582,8,8,8h9.225v72h-9.225c-4.418,0-8,3.582-8,8v2
			c0,4.418,3.582,8,8,8h9.225V370c0,4.418,3.582,8,8,8h59.015v8c0,4.418,3.582,8,8,8h2c4.418,0,8-3.582,8-8v-8h72v8
			c0,4.418,3.582,8,8,8h2c4.418,0,8-3.582,8-8v-8h72v8c0,4.418,3.582,8,8,8h2c4.418,0,8-3.582,8-8v-8h72v8c0,4.418,3.582,8,8,8h2
			c4.418,0,8-3.582,8-8v-8h6.983c4.418,0,8-3.582,8-8v-11C390.613,354.582,387.031,351,382.613,351z"/>
	</g>
</g>
</svg>