<?xml version="1.0" encoding="iso-8859-1"?>
<!-- Uploaded to: SVG Repo, www.svgrepo.com, Generator: SVG Repo Mixer Tools -->
<!DOCTYPE svg PUBLIC "-//W3C//DTD SVG 1.1//EN" "http://www.w3.org/Graphics/SVG/1.1/DTD/svg11.dtd">
<svg fill="#000000" version="1.1" id="Capa_1" xmlns="http://www.w3.org/2000/svg" xmlns:xlink="http://www.w3.org/1999/xlink" 
	 width="800px" height="800px" viewBox="0 0 449.999 449.999"
	 xml:space="preserve">
<g>
	<g>
		<g>
			<path d="M288.48,202.413c0.002-0.122,0.006-0.242,0.009-0.363c0.041-1.97-0.715-3.872-2.092-5.279
				c-1.38-1.407-3.268-2.2-5.235-2.2H168.838c-1.969,0-3.857,0.793-5.235,2.2c-1.377,1.407-2.133,3.309-2.092,5.279
				c0.002,0.121,0.007,0.241,0.01,0.363c-26.651,4.253-30.659,19.459-30.465,28.828c0.378,18.299,16.644,35.902,23.621,42.621
				c8.094,7.798,16.596,13.801,24.581,17.524c0.521,1.085,1.051,2.155,1.593,3.201c8.1,15.57,18.267,26.208,29.491,31.148v59.252
				h-18.837c-5.646,0-10.219,4.576-10.219,10.221v12.826c0,5.646,4.573,10.221,10.219,10.221h66.994
				c5.644,0,10.219-4.575,10.219-10.221v-12.826c0-5.645-4.575-10.221-10.219-10.221h-18.84v-59.252
				c11.225-4.94,21.394-15.578,29.491-31.148c0.541-1.046,1.069-2.114,1.593-3.199c7.982-3.724,16.486-9.726,24.581-17.521
				c6.976-6.719,23.239-24.322,23.62-42.621C319.139,221.875,315.133,206.666,288.48,202.413z M164.846,263.306
				c-11.622-11.192-18.953-23.597-19.134-32.368c-0.148-7.126,5.376-11.749,16.448-13.794c1.247,18.973,4.101,36.241,8.463,51.3
				C168.673,266.845,166.736,265.128,164.846,263.306z M252.316,240.873l-11.573,11.282l2.73,15.932
				c0.188,1.078-0.258,2.166-1.144,2.812c-0.501,0.362-1.093,0.547-1.688,0.547c-0.457,0-0.916-0.107-1.336-0.329L225,263.595
				l-14.307,7.521c-0.968,0.509-2.14,0.424-3.026-0.218c-0.884-0.646-1.328-1.731-1.143-2.812l2.733-15.931l-11.574-11.283
				c-0.784-0.763-1.064-1.905-0.727-2.944c0.338-1.041,1.236-1.799,2.319-1.954l15.996-2.324l7.152-14.494
				c0.485-0.981,1.483-1.602,2.577-1.602s2.092,0.62,2.577,1.602l7.153,14.494l15.993,2.324c1.084,0.155,1.982,0.916,2.32,1.954
				C253.382,238.968,253.1,240.11,252.316,240.873z M285.154,263.31c-1.894,1.822-3.828,3.539-5.777,5.139
				c4.362-15.062,7.218-32.329,8.465-51.305c11.072,2.048,16.599,6.669,16.447,13.797
				C304.107,239.713,296.776,252.117,285.154,263.31z"/>
			<path d="M445.303,31.743H4.697C2.103,31.743,0,33.847,0,36.441v377.117c0,2.595,2.103,4.697,4.697,4.697h21.607
				c2.594,0,4.697-2.104,4.697-4.697V233.257l0,0c0.4-0.098,40.515-10.167,84.204-35.558C155.41,174.333,207.094,132.783,225,67.524
				c17.906,65.258,69.59,106.809,109.794,130.175c43.689,25.391,83.804,35.459,84.203,35.557l0.001,180.303
				c0,2.595,2.104,4.697,4.698,4.697h21.605c2.595,0,4.697-2.104,4.697-4.697V36.441C450,33.847,447.896,31.743,445.303,31.743z
				 M287.528,50.534c4.457,51.396,23.318,95.314,56.062,130.534c-3.993-2.33-7.646-4.564-11.17-6.827
				c-26.062-16.746-47.162-35.994-62.709-57.21c-14.841-20.254-24.729-42.626-29.396-66.497H287.528z M117.579,174.239
				c-3.524,2.264-7.177,4.497-11.171,6.828c32.744-35.22,51.607-79.138,56.064-130.533l0,0h47.213
				c-4.666,23.87-14.556,46.243-29.397,66.497C164.74,138.247,143.642,157.495,117.579,174.239z"/>
		</g>
	</g>
</g>
</svg>