<svg xmlns="http://www.w3.org/2000/svg" viewBox="0 0 48 48" id="business">
  <path d="M7.847 25.144H26.423a.75.75 0 0 0 0-1.5H8.6V9.688a.75.75 0 1 0-1.5 0V24.394A.75.75 0 0 0 7.847 25.144zM32.092 13.644h8.263a.75.75 0 0 0 0-1.5H32.092a.75.75 0 0 0 0 1.5zM32.092 17.794h8.263a.75.75 0 0 0 0-1.5H32.092a.75.75 0 0 0 0 1.5zM32.092 21.944h8.263a.75.75 0 0 0 0-1.5H32.092a.75.75 0 0 0 0 1.5z" fill="#d8a353" class="color000000 svgShape"></path>
  <path d="M10.74,22.321a.749.749,0,0,0,.524-.213l4.942-4.82,2.353,1.736a.748.748,0,0,0,1-.1l6.112-6.776v.683a.75.75,0,1,0,1.5,0V10.2a.75.75,0,0,0-.75-.75H23.468a.75.75,0,1,0,0,1.5h1.267L18.9,17.414,16.584,15.7a.751.751,0,0,0-.969.067l-5.4,5.265a.75.75,0,0,0,.523,1.287Z" fill="#d8a353" class="color000000 svgShape"></path>
  <path d="M45.6,2.259H2.4A2.406,2.406,0,0,0,0,4.663V32.729a2.407,2.407,0,0,0,2.4,2.405H45.6A2.407,2.407,0,0,0,48,32.729V4.663A2.406,2.406,0,0,0,45.6,2.259Zm.9,30.47a.905.905,0,0,1-.9.905H2.4a.905.905,0,0,1-.9-.905V4.663a.9.9,0,0,1,.9-.9H45.6a.9.9,0,0,1,.9.9Z" fill="#d8a353" class="color000000 svgShape"></path>
  <path d="M44.176 5.121H3.824a.75.75 0 0 0-.75.75V28.708a.75.75 0 0 0 .75.75H44.176a.75.75 0 0 0 .75-.75V5.871A.75.75 0 0 0 44.176 5.121zm-.75 22.837H4.574V6.621H43.426zM32.092 41.482H28.9l-.51-4.61a.75.75 0 1 0-1.491.165l.584 5.278a.75.75 0 0 0 .746.667h3.116v1.259H16.658V42.982h3.116a.75.75 0 0 0 .746-.667l.584-5.278a.75.75 0 1 0-1.491-.165l-.51 4.61h-3.2a.75.75 0 0 0-.75.75v2.759a.75.75 0 0 0 .75.75H32.092a.75.75 0 0 0 .75-.75V42.232A.75.75 0 0 0 32.092 41.482z" fill="#d8a353" class="color000000 svgShape"></path>
</svg>
