<?xml version="1.0" encoding="iso-8859-1"?>
<!-- Uploaded to: SVG Repo, www.svgrepo.com, Generator: SVG Repo Mixer Tools -->
<!DOCTYPE svg PUBLIC "-//W3C//DTD SVG 1.1//EN" "http://www.w3.org/Graphics/SVG/1.1/DTD/svg11.dtd">
<svg fill="#000000" version="1.1" id="Capa_1" xmlns="http://www.w3.org/2000/svg" xmlns:xlink="http://www.w3.org/1999/xlink" 
	 width="800px" height="800px" viewBox="0 0 420 420" xml:space="preserve">
<g>
	<g>
		<g>
			<path d="M246.13,408.026c0.272-3.31,0.789-8.692,1.677-15.302H55.453V27.273h198.906V82.69c0,5.599,4.535,10.132,10.131,10.132
				h53.791l0.05,60.709c0.229,0.095,0.459,0.188,0.682,0.295c0.857-3.328,2.494-6.436,4.871-9.075
				c3.951-4.385,9.629-7.061,15.584-7.344l0.971-0.022c1.763,0,3.472,0.223,5.117,0.601V77.743c0-2.168-0.861-4.247-2.395-5.787
				L273.596,2.395C272.064,0.863,269.984,0,267.811,0H52.726C39.191,0,28.179,11.008,28.179,24.543v370.914
				c0,13.534,11.012,24.543,24.547,24.543h195.951C246.696,416.357,245.794,412.238,246.13,408.026z"/>
			<path d="M95.176,87.461h78.001c5.521,0,10-4.478,10-10s-4.479-10-10-10H95.176c-5.522,0-10,4.478-10,10
				S89.654,87.461,95.176,87.461z"/>
			<path d="M243.177,127.461c0-5.522-4.479-10-10-10H95.176c-5.522,0-10,4.478-10,10s4.478,10,10,10h138.001
				C238.698,137.461,243.177,132.983,243.177,127.461z"/>
			<path d="M173.178,167.461H95.177c-5.522,0-10,4.478-10,10s4.478,10,10,10h78.001c5.521,0,10-4.478,10-10
				S178.699,167.461,173.178,167.461z"/>
			<path d="M173.178,217.461H95.177c-5.522,0-10,4.479-10,10c0,5.521,4.478,10,10,10h78.001c5.521,0,10-4.479,10-10
				C183.178,221.94,178.699,217.461,173.178,217.461z"/>
			<path d="M390.626,357.062c-21.482-30.774-43.301-51.439-64.879-61.454c-0.097-2.421-0.242-4.632-0.443-6.684
				c39.879-15.48,62.318-63.167,63.27-65.22c0.769-1.654,0.816-3.499,0.138-5.191c-0.707-1.758-2.166-3.177-4.002-3.892
				c-0.892-0.347-1.822-0.521-2.773-0.521c-2.873,0-5.475,1.604-6.629,4.091c-0.199,0.431-19.879,41.972-52.473,56.739
				c-0.025-0.101-0.05-0.198-0.074-0.299c1.629-1.027,3.188-2.257,4.647-3.668c25.293-24.425,20.843-107.756,20.64-111.291
				c-0.213-3.693-3.363-6.478-7.326-6.478l-0.221,0.003c-2.043,0.097-3.92,0.972-5.209,2.401c-1.207,1.34-1.816,3.049-1.718,4.812
				c1.736,30.693-1.079,84.479-15.838,100.264c-0.821-1.656-1.688-3.195-2.592-4.604c1.877-2.726,2.859-5.809,2.859-9.02v-2.898
				c0-9.343-9.443-16.998-18.205-16.998s-18.205,7.655-18.205,16.998v2.898c0,3.211,0.981,6.294,2.859,9.02
				c-0.904,1.409-1.771,2.948-2.593,4.604c-14.758-15.785-17.573-69.57-15.838-100.264c0.101-1.763-0.51-3.472-1.717-4.812
				c-1.289-1.43-3.166-2.305-5.209-2.401l-0.221-0.003c-3.964,0-7.113,2.784-7.326,6.478c-0.203,3.535-4.654,86.866,20.639,111.291
				c1.463,1.411,3.021,2.641,4.648,3.668c-0.025,0.101-0.049,0.198-0.074,0.298c-32.594-14.769-52.271-56.31-52.473-56.738
				c-1.154-2.484-3.757-4.091-6.63-4.091c-0.95,0-1.883,0.175-2.771,0.521c-1.837,0.715-3.296,2.134-4.003,3.892
				c-0.68,1.692-0.631,3.537,0.138,5.191c0.951,2.053,23.393,49.736,63.271,65.22c-0.201,2.052-0.349,4.263-0.443,6.684
				c-21.578,10.015-43.396,30.68-64.879,61.454c-1.068,1.535-1.438,3.372-1.043,5.174c0.402,1.826,1.594,3.438,3.271,4.425
				c1.15,0.671,2.473,1.023,3.818,1.023c2.444,0,4.709-1.147,6.051-3.072c18.033-25.839,35.875-43.875,53.085-53.684
				c0.765,8.595,2.479,16.663,5.027,23.602c-14.273,23.713-18.477,66.952-19.184,75.501c-0.141,1.761,0.432,3.481,1.608,4.851
				c1.256,1.455,3.109,2.369,5.107,2.507c3.967,0.255,7.434-2.613,7.735-6.307c1.095-13.372,5.207-42.296,13.183-61.494
				c3.686,4.226,7.053,7.167,12.166,7.167s8.479-2.941,12.166-7.167c7.975,19.198,12.088,48.122,13.182,61.494
				c0.303,3.69,3.771,6.562,7.736,6.307c1.998-0.138,3.854-1.052,5.106-2.507c1.181-1.367,1.75-3.09,1.609-4.851
				c-0.707-8.549-4.91-51.788-19.186-75.501c2.549-6.938,4.266-15.007,5.028-23.602c17.209,9.809,35.051,27.845,53.084,53.684
				c1.342,1.925,3.605,3.072,6.051,3.072c1.349,0,2.669-0.354,3.818-1.023c1.678-0.984,2.869-2.599,3.271-4.425
				C392.063,360.435,391.694,358.598,390.626,357.062z"/>
		</g>
	</g>
</g>
</svg>